<?xml version="1.0" encoding="utf-8"?>
<!-- Generator: Adobe Illustrator 23.0.3, SVG Export Plug-In . SVG Version: 6.00 Build 0)  -->
<svg version="1.1" id="Ebene_1" xmlns="http://www.w3.org/2000/svg" xmlns:xlink="http://www.w3.org/1999/xlink" x="0px" y="0px"
	 viewBox="0 0 419.1 368.5" style="enable-background:new 0 0 419.1 368.5;" xml:space="preserve">
<style type="text/css">
	.st0{fill:#013946;}
	.st1{fill:none;}
	.st2{fill:#6CC3C4;}
</style>
<title>performance-colored</title>
<g id="Ebene_16">
	<path class="st0" d="M284.3,219.9c0.7,0.4,1.3,0.7,1.8,1c1.9,1.1,3.8,2.4,5.5,3.9c-1.4-1.2-2.8-2.3-4.3-3.4
		C286.3,220.8,285.3,220.3,284.3,219.9z"/>
	<path class="st0" d="M293.4,226.4c0.4,0.4,0.8,0.7,1.1,1.1C294.2,227.1,293.8,226.7,293.4,226.4z"/>
	<line class="st1" x1="321.9" y1="240.5" x2="340.1" y2="233.1"/>
	<path class="st2" d="M416.5,106.6c-0.9-4.5-4.9-7.7-9.5-7.7l0,0h-8.3c-2-7-4.8-13.8-8.1-20.3l7-7.1c3.2-3.3,3.7-8.3,1.2-12.2
		c-9.7-14.6-22.2-27.1-36.8-36.8c-3.9-2.6-9-2-12.3,1.3l-6.5,6.6c-6.7-3.6-13.8-6.5-21.1-8.7v-9.5c0-4.6-3.2-8.6-7.7-9.5
		c-17.2-3.5-34.9-3.5-52,0c-4.5,0.9-7.8,4.9-7.8,9.5v10.4c-7.1,2.3-13.9,5.3-20.4,8.9l-7.7-7.4c-3.3-3.1-8.3-3.6-12.1-1.1
		c-14.6,9.7-27.1,22.2-36.8,36.8c-2.6,3.9-2,9.1,1.4,12.4l8.8,8.4c-3,6-5.4,12.3-7.3,18.7H169c-4.6,0-8.6,3.3-9.5,7.8
		c-3.5,17.2-3.5,34.9,0,52.1c0.7,3.3,2.9,6,6.1,7.1c12.8-1.1,25.7,0,38.1,3.4l0.4,0.2c-2.3-4.9-4.1-9.9-5.5-15.1
		c-1.1-4.3-5-7.2-9.4-7.2l0,0h-11.9c-0.6-4.8-0.9-9.6-0.9-14.3c0-4.9,0.3-9.7,0.9-14.5h10.6c4.6,0,8.5-3.2,9.5-7.7
		c2.1-9.7,5.6-18.9,10.6-27.5c2.2-3.9,1.5-8.8-1.7-11.8l-8-7.7c5.9-7.6,12.8-14.5,20.4-20.3l7.3,7c3.3,3.1,8.2,3.6,12,1.1
		c8.7-5.7,18.4-9.9,28.5-12.5c4.3-1.1,7.3-5,7.3-9.4v-9.6c9.6-1.2,19.3-1.2,28.8,0v8.8c0,4.5,3.1,8.5,7.6,9.5
		c10.4,2.3,20.4,6.5,29.4,12.2c3.9,2.4,8.9,1.8,12.1-1.4l6-6.1c7.6,5.9,14.4,12.8,20.3,20.4l-6.4,6.5c-3.1,3.2-3.7,8-1.4,11.8
		c5.4,8.8,9.2,18.5,11.4,28.7c1,4.5,4.9,7.7,9.5,7.7h7.7c0.7,5,1,10,1,15c0,4.6-0.3,9.3-0.9,13.9h-9c-4.4,0-8.3,3-9.4,7.2
		c-2.5,9.9-6.7,19.2-12.3,27.7c-2.5,3.8-2,8.9,1.3,12.2l7.1,7.1c-5.9,7.6-12.7,14.5-20.4,20.4l-8-8.1c-3.1-3.1-7.9-3.7-11.7-1.5
		c-8.2,4.8-17.1,8.2-26.4,10.3l-0.2,0.1c4.1,5.9,6.6,12.8,7,20l4.9-2l18.2-7.4l28.9-11.7c5.7-2.3,12-3.1,18.1-2.3
		c3.7-4.2,7.2-8.7,10.3-13.4c2.6-3.8,2.1-8.9-1.2-12.2l-7.5-7.5c3.4-6.2,6.3-12.7,8.5-19.4h10c4.6,0,8.6-3.3,9.5-7.8
		C420,141.5,420,123.8,416.5,106.6L416.5,106.6z"/>
	<path class="st0" d="M187.8,180.9l0.1,0.2c3.8,0.7,7.6,1.6,11.4,2.8C195.2,182.7,191.4,181.7,187.8,180.9z"/>
	<path class="st2" d="M360.8,133.2c0.1-40.2-32.4-72.8-72.6-72.9c-40.2-0.1-72.8,32.4-72.9,72.6c0,18.8,7.2,36.9,20.2,50.4
		l52.6,22.6C328.2,205.9,360.7,173.4,360.8,133.2z"/>
	<path class="st0" d="M288,186.6c-29.5,0-53.3-23.9-53.3-53.3s23.9-53.3,53.3-53.3s53.3,23.9,53.3,53.3l0,0
		C341.3,162.7,317.5,186.6,288,186.6z"/>
	<path class="st0" d="M369,221.3l-28.9,11.7l-18.2,7.4l-4.9,2c0.5,7.6-1.2,15.2-4.8,21.9l0.4,0.9l63.4-25.8
		c6.5-2.4,11.6-1.5,13.4,2.5c1.5,3.3,0.7,8.1-4.6,11l-86.1,49.8c-6,2.8-12.5,4.3-19.2,4.3h-45.4c-7.9,0-15.6-2-22.5-5.9l-16.2-9.2
		l-39.1-22.1l-22.8,12.9l-18.2-35.6l-10.3-20.3l34.3-20c4-2.2,15-7.4,31.9-7.7c14.2-0.4,24.5,3.9,32.7,7.2
		c39.7,16.3,66.8,28,72.5,31.3c2.1,1.2,4.9,3.3,5.6,6.1c0.5,2.3,0,4.7-1.3,6.6c-3.3,5.6-13.3,2.1-13.3,2.1l0,0l-63.5-25.6l-3.6,9
		l-3.6,9l63.7,25.8c0.4,0.2,1,0.3,1.5,0.5c3.8,1.2,7.8,1.8,11.8,1.7c5.8,0.1,11.6-1.5,16.4-4.7c4.1-3.9,8.7-9.6,10.8-16.3
		c0.6-2.5,0.9-5.2,0.8-7.8c-0.1-1.8-0.4-3.5-0.8-5.3c-1.1-4.1-3.1-7.9-6-11.1c-0.1-0.1-0.2-0.2-0.3-0.3c-0.3-0.4-0.7-0.7-1.1-1.1
		c-0.6-0.6-1.2-1.1-1.8-1.7c-1.7-1.4-3.5-2.7-5.5-3.9c-0.5-0.3-1.1-0.6-1.8-1c-9-4.1-36.5-16-55.8-24.3c-5.9-2.4-11.7-4.8-17.3-7.1
		l-0.5-0.2c-3.2-1.3-6.9-2.8-11.2-4.2l-0.4-0.1c-3.7-1.2-7.5-2.1-11.4-2.8c-5.6-1-11.3-1.5-17-1.4c-20.4,0.4-34.3,6.6-41,10.3
		l-33.6,19.6l-12.6-24.6L0,233.7l67.4,134.8l84.3-50.3l-5.5-10.7l-3.8-7.5l13.9-7.9l13.8,7.8l31.9,18.1c9.8,5.5,20.9,8.5,32.1,8.5
		h45.4c9.7,0,19.2-2.2,27.9-6.4l86.8-50.3c13.3-7.3,18.8-22.8,12.7-36c-3.7-8-11.2-13.6-20-14.8C380.9,218.3,374.7,219,369,221.3z"
		/>
	<polygon class="st2" points="126.2,310.9 75.4,341.1 25.5,241.3 75.7,211.9 	"/>
</g>
</svg>
