<svg width="562" height="573" xmlns="http://www.w3.org/2000/svg">
  <g id="svg_1">
   <path id="svg_2" d="m413.849993,315.35c-66.6,0 -120.6,53.3 -120.6,119.3c0,66 54,119.5 120.6,119.5c66.6,0 120.5,-53.5 120.5,-119.4c0,-65.9 -53.9,-119.4 -120.5,-119.4zm-0.5,194.5c-6.4,6.3 -16.6,6.3 -23,0l-51.8,-50.7c-6.4,-6.3 -6.4,-16.3 0,-22.6c6.4,-6.3 16.6,-6.3 23,0l40.3,39.5l77.7,-76.2c6.4,-6.3 16.6,-6.3 23,0c6.4,6.3 6.4,16.3 0,22.6l-89.2,87.4z"/>
   <path id="svg_3" d="m291.049993,327.85c18,-18 39,-32.3 62.4,-42.1c0.6,-0.2 1.2,-0.4 1.7,-0.7l0,-139.6l-68.7,-40.5l-258.7,90.4l-0.1,376.9l34,0l0,-358.7l193.6,-61.9l0,225c9.2,-17.9 21.3,-34.3 35.8,-48.8l0,0z"/>
   <path id="svg_4" d="m98.549993,299.95l121.7,-32.5l0,-62.1l-121.7,39.9l0,54.7z"/>
   <path id="svg_5" d="m97.449993,463.75l121.7,-11.4l0,-59.7l-121.7,19.8l0,51.3z"/>
   <path id="svg_6" d="m97.449993,544.25l121.7,0l0,-62.8l-121.7,8.6l0,54.2z"/>
   <path id="svg_7" d="m97.449993,381.65l121.7,-23.6l0,-59.8l-121.7,31l0,52.4z"/>
   <path id="svg_8" d="m413.649993,279.55c5.3,-0.4 10.7,-0.7 16.2,-0.7c26.6,0 52.2,5.2 76.4,15.5c2.6,1.2 5.1,2.3 7.6,3.4l0,-232.1l-76.8,-64.9l-255.5,92.5l0,23.1l232,-75.8l0.1,239l0,0l0,0z"/>
   <path id="svg_9" d="m413.849993,315.35c-66.6,0 -120.6,53.3 -120.6,119.3c0,66 54,119.5 120.6,119.5c66.6,0 120.5,-53.5 120.5,-119.4c0,-65.9 -53.9,-119.4 -120.5,-119.4zm-0.5,194.5c-6.4,6.3 -16.6,6.3 -23,0l-51.8,-50.7c-6.4,-6.3 -6.4,-16.3 0,-22.6c6.4,-6.3 16.6,-6.3 23,0l40.3,39.5l77.7,-76.2c6.4,-6.3 16.6,-6.3 23,0c6.4,6.3 6.4,16.3 0,22.6l-89.2,87.4z"/>
  </g>
</svg>