<?xml version="1.0" encoding="utf-8"?>
<!-- Generator: Adobe Illustrator 23.0.3, SVG Export Plug-In . SVG Version: 6.00 Build 0)  -->
<svg version="1.1" id="Ebene_1" xmlns="http://www.w3.org/2000/svg" xmlns:xlink="http://www.w3.org/1999/xlink" x="0px" y="0px"
	 viewBox="0 0 375.9 222.3" style="enable-background:new 0 0 375.9 222.3;" xml:space="preserve">
<style type="text/css">
	.st0{fill:none;}
	.st1{fill:#013946;}
	.st2{fill:#FFFFFF;}
	.st3{fill:#6CC3C4;}
</style>
<title>contact-colored</title>
<g id="Ebene_21">
	<line class="st0" x1="227.6" y1="201.3" x2="227.6" y2="201.3"/>
	<line class="st0" x1="267.9" y1="164.3" x2="267.9" y2="164.3"/>
	<line class="st0" x1="247.7" y1="183.2" x2="247.7" y2="183.2"/>
	<polygon class="st1" points="325.9,118.4 320.3,109.1 287.6,128.8 297.1,136.1 325.9,118.4 	"/>
	<path class="st1" d="M175.9,81.4l-1.4,1.6c-0.1,0.1-8.5,10.1-17.4,14.9c-3.9,2.1-11.2,1-17.1-0.6l25.9-37l54.1-8.7
		c12.8,2.4,28.9,13.5,29,13.6l2.9,2l32.9-16.8l-6-9.9l-26.1,13.3C246.9,50,233.1,42,221,40.1l-0.9-0.2l-60.7,9.7l-7,10
		c-14.4-2-44-10.5-58.5-15l-6.1,10.2c6.1,1.9,37.3,11.5,57.3,15.3l-22.9,32.7l6.5,2.8c2.2,1,22,9.1,34.1,2.5
		c8.5-4.6,16.2-12.6,19.3-16l12.2-2.1l24.8,11.8l61,47.1c0.3,1.9,0.5,4.9-0.9,6.6c-1.5,1.9-5.3,2.6-10.7,2.1l-1.2-0.1l-28.1-14.4
		l-9.5,8.1l32.4,16.7c-0.2,2.3-1.1,4.5-2.6,6.3c-2.1,2.2-5.6,3.2-10.3,2.9l-0.9-0.1l-30.8-15.4l-9.6,8.2l34.1,17
		c-1.1,4.1-3.4,7.3-13.2,8.7l-33.1-15.3l-7.2,6.1c-1.1-3.6-3.4-6.7-6.4-8.9l-0.7-0.5c-2.2-1.6-4.7-2.6-7.3-3.1
		c2.1-9.9-4.1-19.6-14-21.8c-1-0.2-1.9-0.3-2.9-0.4c0-1,0-2.1-0.2-3.1c-1.5-10-10.8-16.8-20.8-15.3c-3.9,0.6-7.4,2.4-10.2,5.1
		c-1.2-2-2.8-3.7-4.7-5.1l-0.6-0.4c-7.4-5.3-17.6-4.3-23.8,2.4l-16.4-15.6l-23.1-14.5l-3.1,4.9l-3.1,4.9L73,128.5l16.9,16l-1.3,1.8
		c-5.8,8-4.1,19.3,3.9,25.1l0.6,0.4c2.3,1.7,5,2.8,7.9,3.3c-2.1,9.9,4.3,19.6,14.2,21.6c1.2,0.3,2.5,0.4,3.7,0.4
		c0.8,0,1.5-0.1,2.3-0.1c1.9,9.9,11.5,16.4,21.3,14.5c0.9-0.2,1.9-0.4,2.8-0.8c1.2,3,3.3,5.7,5.9,7.6l0.7,0.5l0,0
		c8,5.8,19.2,4.1,25.1-3.9l0.8-1.1c6.7,1.9,13.6,3.4,20.5,4.6c1.9,0.3,3.8,0.4,5.7,0.4c7.6,0,14.8-2.1,19.8-5.9
		c2.1-1.5,3.8-3.5,5-5.7c18.5-2.3,22.9-10.3,24.9-18.7c7.3-0.6,11.7-3.7,14.3-6.4c3.3-3.5,5.3-8,5.8-12.8c6.5-0.4,11.4-2.6,14.5-6.6
		c6-7.6,2.8-17.8,2.4-19l-0.6-1.7l-64.4-49.7l-11.8-5.7l8.4-13.1L175.9,81.4z"/>
	<path class="st2" d="M216.6,203.8c-3.1,2.4-9.5,4.3-16.8,3.3c-3.9-0.6-9.3-1.8-14.8-3.2l1-1.4c2.6-3.6,3.8-8.1,3.3-12.5l28.2,13.1
		C217.2,203.3,216.9,203.5,216.6,203.8z"/>
	<path class="st3" d="M158.6,209.5L158,209c-2.8-2.1-3.5-6-1.4-8.9l9.2-12.4c1-1.4,2.5-2.3,4.2-2.5c1.7-0.3,3.4,0.1,4.7,1.1l0.7,0.5
		c2.8,2.1,3.5,6.1,1.4,8.9c0,0,0,0,0,0l-9.1,12.5C165.5,211,161.5,211.6,158.6,209.5L158.6,209.5z"/>
	<path class="st3" d="M99.3,162.1c-2.9-2.1-3.5-6.1-1.4-9c0,0,0,0,0,0l7-9.6c2.1-2.9,6.1-3.5,9-1.4c0,0,0,0,0,0l0.6,0.4
		c2.9,2.1,3.5,6.1,1.4,9c0,0,0,0,0,0l-7,9.6c-2.1,2.9-6.1,3.5-9,1.4c0,0,0,0,0,0L99.3,162.1z"/>
	<path class="st3" d="M112.1,179.8c-0.3-1.8,0.2-3.6,1.2-5l20-27.4c1.1-1.5,2.7-2.4,4.4-2.7c0.4-0.1,0.7-0.1,1.1-0.1
		c3.7,0,6.8,3,6.8,6.8c0,1.4-0.5,2.8-1.3,4l-1.6,2.2c-0.5,0.5-0.9,1-1.4,1.5l-17.2,23.5c-0.2,0.3-0.4,0.6-0.5,0.9
		c-2.6,2.7-6.9,2.7-9.6,0.1C113,182.7,112.3,181.3,112.1,179.8L112.1,179.8z"/>
	<path class="st3" d="M133.5,189.4l17.2-23.5c1.1-1.5,2.7-2.4,4.4-2.7c0.4-0.1,0.7-0.1,1.1-0.1c3.7,0,6.8,3.1,6.8,6.8
		c0,1.4-0.5,2.8-1.3,4l-3.8,5.1c-0.5,0.5-1.1,1.1-1.5,1.7l-9.1,12.5c-0.4,0.6-0.8,1.3-1.1,1.9l-1.6,2.2c-2.2,3-6.5,3.7-9.5,1.5
		C132,196.7,131.3,192.4,133.5,189.4z"/>
	<polygon class="st3" points="93.8,44.6 106,24.4 77.3,7.1 69.4,20.3 84.9,29.6 36.7,109.6 21.2,100.3 69.3,20.3 56.1,12.4 0,105.5 
		42,130.8 74.4,76.8 87.7,54.8 	"/>
	<polygon class="st3" points="284.9,50.3 320.3,109.1 325.9,118.4 339.1,110.5 291,30.5 306.5,21.2 354.7,101.2 339.2,110.5 
		347.2,123.7 353.9,119.6 375.9,106.4 311.8,0 269.8,25.3 278.9,40.4 	"/>
</g>
</svg>
