<svg id="Ebene_1" data-name="Ebene 1" xmlns="http://www.w3.org/2000/svg" viewBox="0 0 187.36 60.22"><defs><style>.cls-1{fill:#63ceca;}.cls-2{fill:#003946;}</style></defs><title>EVANnetwork_Logo</title><rect class="cls-1" x="180.8" y="46.91" width="6.55" height="6.66"/><path class="cls-2" d="M0,33.53H33.53V26.82H6.71v-6.7H33.53V0H0ZM26.82,6.71v6.7H6.71V6.71Z"/><polygon class="cls-2" points="66.96 6.71 66.96 26.8 73.67 26.8 73.67 0 66.96 0 66.96 6.71"/><polygon class="cls-2" points="46.85 0 40.14 0 40.14 33.53 66.94 33.53 66.94 26.82 46.85 26.82 46.85 0"/><polygon class="cls-2" points="120.42 0 120.42 33.53 127.12 33.53 127.12 6.71 147.24 6.71 147.24 26.82 147.24 33.53 153.94 33.53 153.94 0 120.42 0"/><path class="cls-2" d="M80.39,6.71h26.82v6.7H80.39V33.53h33.53V0H80.39ZM87.1,26.82v-6.7h20.11v6.7Z"/><rect class="cls-1" x="80.34" y="46.91" width="66.9" height="6.66"/><rect class="cls-1" x="147.24" y="53.57" width="26.96" height="6.66"/><path class="cls-2" d="M6.15,53.56H4.33V49.68a1.87,1.87,0,0,0-.25-1.08.94.94,0,0,0-.82-.36,1.22,1.22,0,0,0-1.1.5,3.14,3.14,0,0,0-.34,1.69v3.13H0V46.91H1.39l.25.85h.1A1.9,1.9,0,0,1,2.57,47a3,3,0,0,1,1.22-.25,2.32,2.32,0,0,1,1.76.63,2.52,2.52,0,0,1,.6,1.81Z"/><path class="cls-2" d="M15.05,53.68a3.43,3.43,0,0,1-2.51-.89,3.36,3.36,0,0,1-.91-2.51,3.68,3.68,0,0,1,.84-2.58,3,3,0,0,1,2.31-.92,2.94,2.94,0,0,1,2.2.81,3,3,0,0,1,.78,2.22v.88H13.47a1.75,1.75,0,0,0,.46,1.2,1.62,1.62,0,0,0,1.2.44,4.69,4.69,0,0,0,1.14-.13,5.55,5.55,0,0,0,1.12-.39v1.4a4,4,0,0,1-1,.35A6.19,6.19,0,0,1,15.05,53.68Zm-.26-5.61a1.17,1.17,0,0,0-.9.37,1.73,1.73,0,0,0-.38,1h2.55a1.5,1.5,0,0,0-.35-1A1.21,1.21,0,0,0,14.79,48.07Z"/><path class="cls-2" d="M26.06,52.23a4.27,4.27,0,0,0,1.15-.2v1.35a4.16,4.16,0,0,1-1.67.3A2,2,0,0,1,24,53.13a2.41,2.41,0,0,1-.49-1.65V48.27h-.87V47.5l1-.6.52-1.41h1.16v1.42h1.87v1.36H25.27v3.21a.68.68,0,0,0,.22.57A.86.86,0,0,0,26.06,52.23Z"/><path class="cls-2" d="M38,53.56l-.51-2.33-.69-2.94h0l-1.22,5.27H33.63l-1.89-6.65h1.81l.77,2.94c.12.53.25,1.26.37,2.19h0a10.19,10.19,0,0,1,.21-1.44l.09-.5.82-3.19h2l.78,3.19c0,.09,0,.21.08.38l.09.55c0,.19.06.38.09.56s0,.34,0,.45h0c0-.29.1-.68.19-1.18s.16-.83.2-1l.79-2.94h1.78L40,53.56Z"/><path class="cls-2" d="M53.07,50.22a3.56,3.56,0,0,1-.85,2.54,3.12,3.12,0,0,1-2.39.92,3.34,3.34,0,0,1-1.69-.42A2.77,2.77,0,0,1,47,52.06a4,4,0,0,1-.4-1.84,3.58,3.58,0,0,1,.85-2.53,3.12,3.12,0,0,1,2.4-.91,3.36,3.36,0,0,1,1.69.42,2.83,2.83,0,0,1,1.12,1.2A4,4,0,0,1,53.07,50.22Zm-4.6,0a2.78,2.78,0,0,0,.33,1.5,1.35,1.35,0,0,0,2.1,0,2.86,2.86,0,0,0,.32-1.5,2.78,2.78,0,0,0-.32-1.48,1.38,1.38,0,0,0-2.11,0A2.78,2.78,0,0,0,48.47,50.22Z"/><path class="cls-2" d="M62.31,46.78a2.62,2.62,0,0,1,.61.06l-.14,1.7a2,2,0,0,0-.53-.06,1.9,1.9,0,0,0-1.35.45,1.58,1.58,0,0,0-.49,1.25v3.38H58.6V46.91H60L60.24,48h.09a2.32,2.32,0,0,1,.83-.9A2.07,2.07,0,0,1,62.31,46.78Z"/><path class="cls-2" d="M69.9,49.94l.79-1,1.86-2h2L72,49.79l2.81,3.77h-2.1l-1.91-2.69-.78.62v2.07H68.15V44.3H70v4.13l-.1,1.51Z"/></svg>