<svg xmlns="http://www.w3.org/2000/svg" viewBox="0 0 423.63 425.1"><defs><style>.cls-1{fill:#013946;}.cls-2{fill:#6cc3c4;}.cls-3{fill:#fff;}</style></defs><title>register-colored</title><g id="Ebene_1" data-name="Ebene 1"><path class="cls-1" d="M386.35,214.11V94.26A47.77,47.77,0,1,0,364.44,94V214.37a47.61,47.61,0,0,0-30.15,69.57L249.38,348a47.78,47.78,0,0,0-25.18-16.7V210.49a47.69,47.69,0,1,0-42.87-82.72L92,65.34A48,48,0,1,0,79.45,83.27l88.69,62a46.88,46.88,0,0,0-2.6,30.63l-83.16,52a47.72,47.72,0,1,0-5,70l90.21,61.53a47.74,47.74,0,1,0,91.07,9l90.5-68.31a47.71,47.71,0,1,0,37.18-86.05Z"/><path class="cls-2" d="M47.72,73.54A25.82,25.82,0,1,1,73.54,47.72,25.85,25.85,0,0,1,47.72,73.54Z"/><path class="cls-2" d="M47.72,286.46a25.82,25.82,0,1,1,25.82-25.82A25.85,25.85,0,0,1,47.72,286.46Z"/><path class="cls-2" d="M211.81,138.63A25.82,25.82,0,1,1,186,164.45,25.85,25.85,0,0,1,211.81,138.63Z"/><path class="cls-3" d="M91,280.7a47.17,47.17,0,0,0,2.43-33.82l82.2-51.43a47.76,47.76,0,0,0,26.7,15.77V330.61a47.52,47.52,0,0,0-22,11Z"/><path class="cls-2" d="M211.81,403.19a25.82,25.82,0,1,1,25.82-25.82A25.85,25.85,0,0,1,211.81,403.19Z"/><path class="cls-2" d="M350.08,47.72A25.82,25.82,0,1,1,375.9,73.54,25.85,25.85,0,0,1,350.08,47.72Z"/><path class="cls-2" d="M375.9,286.46a25.82,25.82,0,1,1,25.82-25.82A25.85,25.85,0,0,1,375.9,286.46Z"/></g></svg>