<svg id="Ebene_1" data-name="Ebene 1" xmlns="http://www.w3.org/2000/svg" viewBox="0 0 419.73 378.94"><defs><style>.cls-1{fill:#013946;}.cls-2{fill:#6cc3c4;}</style></defs><title>login-colored</title><g id="Ebene_11" data-name="Ebene 11"><path class="cls-1" d="M386.1,109.7a107,107,0,1,0-213.9-5.4v5.5h26.5A80.41,80.41,0,1,1,359.5,108v62.6h26.6Z" transform="translate(0.03 0.04)"/><polygon class="cls-1" points="393.03 378.94 393.03 352.33 165.13 352.33 165.13 299.74 138.63 299.74 138.63 378.94 393.03 378.94"/><polygon class="cls-1" points="393.23 352.13 419.73 352.13 419.73 170.53 386.13 170.53 359.63 170.53 138.63 170.53 138.63 214.74 165.13 214.74 165.13 197.13 393.23 197.13 393.23 352.13"/><path class="cls-2" d="M50.6,308.4a50.43,50.43,0,0,0,48.6-36.8H265.8v24.6h28.7V245H99.5a50.58,50.58,0,1,0-48.9,63.4Z" transform="translate(0.03 0.04)"/><path class="cls-1" d="M50.6,233.8a24,24,0,1,1-24,24,23.94,23.94,0,0,1,24-24Z" transform="translate(0.03 0.04)"/></g></svg>