<svg width="500" height="500" xmlns="http://www.w3.org/2000/svg">
 <g>
   <g stroke="null" transform="matrix(1.2572562322641878,0,0,1.2252779542751357,-172.0134208352756,-24.258648248839563) " id="svg_4" fill="#000000">
    <svg stroke="null" id="svg_5" viewBox="0 0 100 100" y="1px" x="100px">
     <path stroke="null" id="svg_6" d="m60.1,32c0,-0.9 0,-0.4 0,-0.5c0,-4.8 -3.5,-8.8 -9.1,-8.8l0,9.3l9.1,0z" fill="#64ccc9"/>
     <path stroke="null" id="svg_7" d="m42.1,32c0,5.1 4.9,9.3 8.9,9.3l0,-9.3c0,0 -8.9,-0.1 -8.9,0z" fill="#e10098"/>
     <path xmlns="http://www.w3.org/2000/svg" stroke-width="3px" stroke="#00313C" id="svg_8" d="m63.2,31.6c0,6.8 -5.5,12.2 -12.2,12.2s-12.2,-5.5 -12.2,-12.2s5.4,-12.2 12.2,-12.2s12.2,5.5 12.2,12.2zm4.4,17.8c3.9,0.2 7.7,-1.8 9.7,-5.2c1.7,-3 2.7,-6.2 2.7,-9.5c-0.1,-16.4 -12.5,-29.7 -29.4,-29.7c-19.6,0 -31.5,13.3 -31.5,29.6c0,0 -0.6,1.6 -0.7,1.9l-6.1,10.7c-0.6,1.1 -0.1,2.4 1,2.9l2.7,1c0.6,0.2 0.8,0.9 0.5,1.4l-1,1.8c-0.3,0.5 -0.2,1.2 0.2,1.6l0.8,1c0.2,0.3 0.3,0.7 0,1l-0.5,0.8c-0.5,0.7 -0.3,1.7 0.5,2.2l0.7,0.4c0.5,0.3 0.7,0.8 0.7,1.3l-0.1,6c-0.1,3.1 3.1,5.1 5.9,3.9l19.6,-9c1.4,-0.6 2.4,-1.8 2.8,-3.3l2.9,-9.6c0.4,-1.3 1.7,-2.2 3.1,-2.2l15.5,1z" fill="transparent"/>
     <path stroke="null" id="svg_9" d="m51.7,56.5l11.2,0.9c0.6,0 1.1,-0.3 1.3,-0.9l0.5,-1.8c0.2,-0.8 -0.3,-1.5 -1.1,-1.6l-11.2,-0.8c-0.6,0 -1.1,0.3 -1.3,0.9l-0.5,1.7c-0.2,0.8 0.3,1.6 1.1,1.6z" fill="#6cc3c4"/>
     <path stroke="null" id="svg_10" d="m48.6,64.5l13.2,-0.7c0.6,0 1.1,-0.5 1.2,-1.1l0.2,-1.3c0.1,-0.7 -0.5,-1.4 -1.2,-1.4l-12,-0.6c-0.4,0 -0.7,0.2 -0.8,0.6l-0.6,2.2c-0.1,0.4 -0.3,0.7 -0.5,0.9l0,0c-0.6,0.6 -0.2,1.5 0.5,1.4z" fill="#00313C"/>
     <path stroke="null" id="svg_11" d="m34.3,75.6l27.7,-5.4c0.5,-0.1 0.8,-0.5 0.8,-1l0,-1.9c0,-0.6 -0.5,-1 -1.1,-1l-23.1,2.5c-0.1,0 -0.2,0 -0.3,0.1l-4.7,2.2c-0.4,0.2 -0.6,0.6 -0.6,1l0.2,2.5c0,0.6 0.6,1.1 1.1,1z" fill="#6cc3c4"/>
     <path stroke="null" id="svg_12" d="m36.9,85.9l26.1,-9.5c0.4,-0.2 0.7,-0.6 0.6,-1.1l-0.4,-2c-0.1,-0.6 -0.7,-0.9 -1.2,-0.8l-27,6.8c-0.5,0.1 -0.8,0.7 -0.7,1.2l1.3,4.6c0.2,0.7 0.8,1 1.3,0.8z" fill="#00313C"/>
    </svg>
   </g>
 </g>
</svg>