<svg width="24" height="24" viewBox="0 0 24 24" fill="none" xmlns="http://www.w3.org/2000/svg">
<filter id="dropshadow" height="150%">"
  <feGaussianBlur in="SourceAlpha" stdDeviation="1"/> <!-- stdDeviation is how much to blur -->
  <feOffset dx="-0.1" dy="-0.1" result="offsetblur"/> <!-- how much to offset -->
  <feComponentTransfer>
    <feFuncR type="discrete" tableValues="1"/>
         <feFuncG type="discrete" tableValues="1"/>
         <feFuncB type="discrete" tableValues="1"/>
    <feFuncA type="linear" slope="0.5" /> <!-- slope is the opacity of the shadow -->
  </feComponentTransfer>
  <feMerge>
    <feMergeNode/> <!-- this contains the offset blurred image -->
    <feMergeNode in="SourceGraphic"/> <!-- this contains the element that the filter is applied to -->
  </feMerge>
</filter>

<path d="M23 4.72004L15.4 12ZM10 17L6 13L7.41 11.59L10 14.17L19.095 5.13004L20.9 5.9 " fill="white" />
<path style="filter:url(#dropshadow)" d="M23 12L20.56 9.22004L20.9 5.54004L17.29 4.72004L15.4 1.54004L12 3.00004L8.6 1.54004L6.71 4.72004L3.1 5.53004L3.44 9.21004L1 12L3.44 14.78L3.1 18.47L6.71 19.29L8.6 22.47L12 21L15.4 22.46L17.29 19.28L20.9 18.46L20.56 14.78L23 12ZM10 17L6 13L7.41 11.59L10 14.17L19.095 5.13004L20.9 5.54004L20.843 6.15704L10 17Z" fill="black"/>
</svg>
