<?xml version="1.0" encoding="utf-8"?>
<!-- Generator: Adobe Illustrator 23.0.3, SVG Export Plug-In . SVG Version: 6.00 Build 0)  -->
<svg version="1.1" id="Ebene_1" xmlns="http://www.w3.org/2000/svg" xmlns:xlink="http://www.w3.org/1999/xlink" x="0px" y="0px"
	 viewBox="0 0 423.6 425.1" style="enable-background:new 0 0 423.6 425.1;" xml:space="preserve">
<style type="text/css">
	.st0{fill:#013946;}
	.st1{fill:#6CC3C4;}
</style>
<title>icons-darkblue</title>
<g id="Ebene_13">
	<path class="st0" d="M406,4.1H89.7v203.5h10.5c3.8,0,7.6,0.4,11.3,1V26h272.6v295.8h-76.4v79.4H169.3V423l0,0l0,0h154.6l74.9-79.4
		h0.1v-0.1l7-7.5L406,4.1z"/>
	<polygon class="st1" points="368.8,343.7 329.6,385.2 329.6,343.7 	"/>
	<rect x="148.2" y="85.9" class="st0" width="199.3" height="21.9"/>
	<rect x="148.2" y="138.7" class="st0" width="199.3" height="21.9"/>
	<rect x="148.2" y="191.6" class="st0" width="199.3" height="21.9"/>
	<path class="st0" d="M171.9,265.3c0.1,0.3,0.2,0.6,0.3,1h175.3v-21.9H161.1C165.3,251,168.9,258,171.9,265.3z"/>
	<path class="st1" d="M152.4,309.5V283c0.8-32.1-24.5-58.9-56.7-59.7c-32.1-0.8-58.9,24.5-59.7,56.7c0,1,0,2,0,3.1v26.4H19V423
		h128.5v-21.8H40.9v-69.8h106.6v69.8h21.8V423l0,0V309.5H152.4z"/>
	<path class="st0" d="M57.8,283c-0.3-20.1,15.7-36.6,35.7-36.9c20.1-0.3,36.6,15.7,36.9,35.7c0,0.4,0,0.8,0,1.2v26.4H57.8V283z"/>
	<path class="st0" d="M347.5,266.3H172.2c-0.1-0.3-0.1-0.6-0.3-1c-3-7.3-6.6-14.3-10.8-20.9h186.4V266.3z M148.2,85.9h199.3v21.9
		H148.2V85.9z M148.2,138.7h199.3v21.9H148.2V138.7z M148.2,191.6h199.3v21.9H148.2V191.6z"/>
</g>
</svg>
