<?xml version="1.0" encoding="iso-8859-1"?>
<svg version="1.1" id="Capa_1" xmlns="http://www.w3.org/2000/svg" xmlns:xlink="http://www.w3.org/1999/xlink" x="0px" y="0px"
	 viewBox="0 0 444.462 444.462" style="enable-background:new 0 0 444.462 444.462;" xml:space="preserve">
	<g>
		<path d="M317.166,119.796H127.297c-4.143,0-7.5,3.358-7.5,7.5v189.869c0,4.142,3.357,7.5,7.5,7.5h189.869
			c4.143,0,7.5-3.358,7.5-7.5V127.296C324.666,123.154,321.309,119.796,317.166,119.796z M309.666,309.666H134.797V134.796h174.869
			V309.666z"/>
		<path d="M185.887,266.076h72.689c4.143,0,7.5-3.358,7.5-7.5v-72.689c0-4.142-3.357-7.5-7.5-7.5h-72.689c-4.143,0-7.5,3.358-7.5,7.5
			v72.689C178.387,262.718,181.744,266.076,185.887,266.076z M193.387,193.386h57.689v57.689h-57.689V193.386z"/>
		<path d="M305.524,15c6.96,0,10.082-9.068,4.637-13.389c-5.408-4.292-13.535,0.832-11.948,7.579
			C299.004,12.547,302.068,15,305.524,15z"/>
		<path d="M143.104,430.73c-2.454-1.616-5.649-1.661-8.146-0.113c-2.891,1.792-4.211,5.471-3.135,8.698
			c0.978,2.93,3.715,5.015,6.809,5.138c3.191,0.127,6.143-1.826,7.299-4.794C147.185,436.437,146,432.636,143.104,430.73z"/>
		<path d="M436.962,188.086c4.143,0,7.5-3.358,7.5-7.5s-3.357-7.5-7.5-7.5h-82.296v-26.645h82.296c4.143,0,7.5-3.358,7.5-7.5
			s-3.357-7.5-7.5-7.5h-82.296v-5.392c0-19.99-16.264-36.253-36.254-36.253h-5.392V31.6c0-4.142-3.357-7.5-7.5-7.5
			s-7.5,3.358-7.5,7.5v58.196h-26.645V7.5c0-4.142-3.357-7.5-7.5-7.5s-7.5,3.358-7.5,7.5v82.296h-26.645V7.5
			c0-4.142-3.357-7.5-7.5-7.5s-7.5,3.358-7.5,7.5v82.296h-26.646V7.5c0-4.142-3.357-7.5-7.5-7.5s-7.5,3.358-7.5,7.5v82.296h-26.645
			V7.5c0-4.142-3.357-7.5-7.5-7.5s-7.5,3.358-7.5,7.5v82.296h-5.392c-19.99,0-36.253,16.263-36.253,36.253v5.392H7.5
			c-4.143,0-7.5,3.358-7.5,7.5s3.357,7.5,7.5,7.5h82.297v26.645H7.5c-4.143,0-7.5,3.358-7.5,7.5s3.357,7.5,7.5,7.5h82.297v26.645H7.5
			c-4.143,0-7.5,3.358-7.5,7.5s3.357,7.5,7.5,7.5h82.297v26.645H7.5c-4.143,0-7.5,3.358-7.5,7.5s3.357,7.5,7.5,7.5h82.297v26.645H7.5
			c-4.143,0-7.5,3.358-7.5,7.5s3.357,7.5,7.5,7.5h82.297v5.392c0,19.99,16.263,36.253,36.253,36.253h5.392v58.197
			c0,4.142,3.357,7.5,7.5,7.5s7.5-3.358,7.5-7.5v-58.197h26.645v82.296c0,4.142,3.357,7.5,7.5,7.5s7.5-3.358,7.5-7.5v-82.296h26.646
			v82.296c0,4.142,3.357,7.5,7.5,7.5s7.5-3.358,7.5-7.5v-82.296h26.645v82.296c0,4.142,3.357,7.5,7.5,7.5s7.5-3.358,7.5-7.5v-82.296
			h26.645v82.296c0,4.142,3.357,7.5,7.5,7.5s7.5-3.358,7.5-7.5v-82.296h5.392c19.99,0,36.254-16.263,36.254-36.253v-5.392h82.296
			c4.143,0,7.5-3.358,7.5-7.5s-3.357-7.5-7.5-7.5h-82.296v-26.645h82.296c4.143,0,7.5-3.358,7.5-7.5s-3.357-7.5-7.5-7.5h-82.296
			v-26.645h82.296c4.143,0,7.5-3.358,7.5-7.5s-3.357-7.5-7.5-7.5h-82.296v-26.645H436.962z M339.666,318.412
			c0,11.719-9.534,21.253-21.254,21.253H126.05c-11.719,0-21.253-9.534-21.253-21.253V126.05c0-11.719,9.534-21.253,21.253-21.253
			h192.362c11.72,0,21.254,9.534,21.254,21.253V318.412z"/>
	</g>
</svg>
