<?xml version="1.0" encoding="utf-8"?>
<!-- Generator: Adobe Illustrator 23.1.1, SVG Export Plug-In . SVG Version: 6.00 Build 0)  -->
<svg version="1.1" id="Ebene_1" xmlns="http://www.w3.org/2000/svg" xmlns:xlink="http://www.w3.org/1999/xlink" x="0px" y="0px"
	 viewBox="0 0 77 85" style="enable-background:new 0 0 77 85;" xml:space="preserve">
<style type="text/css">
	.st0{fill:url(#SVGID_1_);}
	.st1{fill:#003742;}
	.st2{fill:#00CAC6;}
	.st3{fill:#FFFFFF;}
</style>
<g>
	<g>
		
			<linearGradient id="SVGID_1_" gradientUnits="userSpaceOnUse" x1="-105.7246" y1="98.6334" x2="-70.9208" y2="29.9336" gradientTransform="matrix(-1 0 0 1 -57.1768 0)">
			<stop  offset="0" style="stop-color:#003742"/>
			<stop  offset="1" style="stop-color:#00CAC6"/>
		</linearGradient>
		<polygon class="st0" points="9.79,25.21 39,42.08 39,76.7 9.79,59.84 		"/>
		<polygon class="st1" points="68.2,25.21 39,42.08 39,76.7 68.2,59.84 		"/>
		<g>
			<polygon class="st2" points="39,42.08 9.79,25.21 39,8.35 68.2,25.21 			"/>
		</g>
	</g>
</g>
<g>
	<polygon class="st3" points="49.76,61.07 49.76,62.27 58.13,57.33 58.13,56.14 	"/>
	<polygon class="st3" points="48.6,65.4 59.29,59.1 59.29,57.9 48.6,64.21 	"/>
	<path class="st3" d="M59.21,38.45l-0.94,0.55v1.03l-0.97,0.57v1.05l-5.34,3.15l-0.15-0.21c-0.33-0.44-0.87-0.46-1.42-0.14
		c-0.32,0.19-0.64,0.49-0.92,0.9c-0.5,0.7-0.77,1.55-0.76,2.25c0,0.4,0.09,0.76,0.27,1.01l2.59,3.49c0,0.01,0,0.02,0,0.02v5.43
		l-0.92,0.54v1.19l6.6-3.89v-1.19l-0.92,0.54v-5.43c0-1.61-1.01-2.33-2.26-1.68l-1.49-2.01l4.72-2.78v1.74l0.97-0.57v1.61l0.94-0.55
		v-1.61l1.02-0.6v-0.64v-3.34l-1.02,0.6V38.45z M54.09,49.87c0.08,0.11,0.12,0.27,0.12,0.45c0,0.31-0.12,0.69-0.33,1
		c-0.13,0.18-0.27,0.31-0.41,0.4c-0.25,0.15-0.49,0.13-0.63-0.06l-3.08-4.15c-0.08-0.11-0.12-0.27-0.12-0.45
		c0-0.32,0.12-0.69,0.34-1c0.13-0.19,0.27-0.32,0.41-0.4c0.25-0.14,0.49-0.14,0.63,0.06L54.09,49.87z M55.39,55.31l-2.88,1.7v-3.94
		c0.29,0.09,0.62,0.04,0.97-0.17c0,0,0.01,0,0.01-0.01c0.31-0.19,0.63-0.49,0.92-0.89l0-0.01c0.49-0.7,0.76-1.54,0.76-2.24
		c0-0.37-0.08-0.69-0.24-0.94c0.28,0.17,0.47,0.53,0.47,1.05V55.31z M59.22,42.18l-0.91,0.54V41.3l0.91-0.54V42.18z"/>
</g>
</svg>
