<?xml version="1.0" encoding="utf-8"?>
<!-- Generator: Adobe Illustrator 23.1.1, SVG Export Plug-In . SVG Version: 6.00 Build 0)  -->
<svg version="1.1" id="Ebene_1" xmlns="http://www.w3.org/2000/svg" xmlns:xlink="http://www.w3.org/1999/xlink" x="0px" y="0px"
	 viewBox="0 0 77 85" style="enable-background:new 0 0 77 85;" xml:space="preserve">
<style type="text/css">
	.st0{fill:url(#SVGID_1_);}
	.st1{fill:#003742;}
	.st2{fill:#00CAC6;}
	.st3{fill:#FFFFFF;}
</style>
<g>
	<g>
		
			<linearGradient id="SVGID_1_" gradientUnits="userSpaceOnUse" x1="-105.7246" y1="98.6334" x2="-70.9208" y2="29.9336" gradientTransform="matrix(-1 0 0 1 -57.1768 0)">
			<stop  offset="0" style="stop-color:#003742"/>
			<stop  offset="1" style="stop-color:#00CAC6"/>
		</linearGradient>
		<polygon class="st0" points="9.79,25.21 39,42.08 39,76.7 9.79,59.84 		"/>
		<polygon class="st1" points="68.2,25.21 39,42.08 39,76.7 68.2,59.84 		"/>
		<g>
			<polygon class="st2" points="39,42.08 9.79,25.21 39,8.35 68.2,25.21 			"/>
		</g>
	</g>
</g>
<path class="st3" d="M54.72,50.19c2.12-1.24,3.78-4.35,3.79-6.94c-0.01-2.58-1.66-3.77-3.79-2.55c-2.12,1.24-3.78,4.35-3.78,6.94
	C50.94,50.22,52.6,51.41,54.72,50.19z M54.72,41.93c1.48-0.85,2.74-0.05,2.74,1.92c0,1.98-1.25,4.23-2.74,5.1
	c-1.48,0.86-2.73,0.05-2.73-1.92C51.99,45.06,53.24,42.8,54.72,41.93z M62.33,55.45c-0.2-0.9-0.95-4.21-0.97-4.3
	c-0.46-1.72-1.81-1.8-1.86-1.81l-0.04,0l-2.8,0.54l-1.93,3.4l-1.95-1.16l-2.49,2.62c-0.01,0-1.65,1.51-2.12,4.08
	c-0.36,2.01-1.01,5.09-1.09,5.5l-2.66,1.54v1.23l20.62-11.96v-1.23L62.33,55.45z M48.15,63.68c0.21-0.98,0.71-3.44,1.03-5.18
	c0.17-0.93,0.53-1.61,0.86-2.09c0.16-0.24,0.32-0.42,0.43-0.55c0.11-0.12,0.15-0.15,0.15-0.15l1.91-2l2.2,1.32l2.22-3.9l2.1-0.4
	c0.08,0.01,0.27,0.05,0.5,0.19c0.3,0.18,0.64,0.52,0.8,1.14c0.01,0.05,0.65,2.88,0.91,4.03L48.15,63.68z"/>
<g>
	<g>
		<g>
			<g>
				<path class="st3" d="M26.29,22.79c1.46-0.21,2.83-0.65,3.96-1.31l0,0l2.9-1.69l1.06,0.62l-2.91,1.69
					c-1.32,0.77-2.94,1.29-4.65,1.54l0,0L26.29,22.79L26.29,22.79z"/>
			</g>
			<g>
				<path class="st3" d="M32.41,31.3c3.11,0.73,6.82,0.36,9.32-1.1l0,0l0,0l1.06,0.62c-2.95,1.71-7.29,2.14-10.94,1.29l0,0
					L32.41,31.3L32.41,31.3z"/>
			</g>
			<g>
				<path class="st3" d="M47.63,26.78c3.35-1.95,3.35-5.14,0.01-7.09l0,0c-3.36-1.95-8.84-1.95-12.2,0l0,0v0l-1.06-0.62
					c3.94-2.29,10.38-2.29,14.32,0l0,0c3.94,2.3,3.93,6.04-0.02,8.33l0,0L47.63,26.78L47.63,26.78z"/>
			</g>
			<g>
				<path class="st3" d="M34.02,27.61"/>
			</g>
			<g>
				<path class="st3" d="M39.33,28.87l6.06-3.52c0.92-0.53,1.43-1.21,1.53-1.91l0,0l0,0l1.49,0.08c-0.13,0.89-0.79,1.77-1.97,2.45
					l0,0l-6.06,3.52L39.33,28.87L39.33,28.87z"/>
			</g>
			<g>
				<path class="st3" d="M34.47,21.76l2.38-1.38c2.65-1.54,6.96-1.54,9.61,0l0,0c0.79,0.46,1.35,1.01,1.66,1.59l0,0l-1.43,0.27
					c-0.25-0.45-0.68-0.88-1.3-1.24l0,0c-2.07-1.2-5.43-1.2-7.49,0l0,0l-2.38,1.38L34.47,21.76L34.47,21.76z"/>
			</g>
			<g>
				<path class="st3" d="M38.08,27.01l5.01-2.91c0.32-0.19,0.48-0.45,0.44-0.75l0,0c-0.04-0.3-0.27-0.62-0.72-0.88l0,0
					c-0.45-0.26-1-0.4-1.51-0.42l0,0c-0.52-0.02-0.97,0.07-1.29,0.26l0,0l-3.43,1.99l-1.06-0.62l3.43-2
					c1.36-0.77,3.54-0.64,4.93,0.16l0,0c1.38,0.8,1.6,2.07,0.27,2.86l0,0l-5.01,2.91l0,0L38.08,27.01L38.08,27.01z"/>
			</g>
			<g>
				<polygon class="st3" points="39.43,28.81 45.49,25.29 46.55,25.91 40.49,29.43 39.43,28.81 				"/>
			</g>
			<g>
				<path class="st3" d="M30.9,29.43c-2.65-1.54-2.65-4.04-0.01-5.58l0,0l2.32-1.35l0,0l1.06,0.61l-2.32,1.35
					c-2.06,1.2-2.05,3.15,0,4.35l0,0c0.97,0.56,2.22,0.86,3.5,0.9l0,0l-0.06,0.87C33.75,30.53,32.14,30.15,30.9,29.43L30.9,29.43
					C30.9,29.43,30.9,29.43,30.9,29.43L30.9,29.43z"/>
			</g>
			<g>
				<path class="st3" d="M33.14,25.07l3.42-1.99l1.06,0.62l-3.42,1.99c-0.39,0.23-0.54,0.57-0.39,0.95l0,0l0,0l-1.46,0.2
					C32.1,26.22,32.33,25.54,33.14,25.07L33.14,25.07z"/>
			</g>
			<g>
				<path class="st3" d="M34.48,27.32c0.45,0.26,1,0.4,1.51,0.42l0,0c0.52,0.02,0.97-0.07,1.29-0.26l0,0l5.63-3.27l1.06,0.62
					l-5.63,3.27c-1.36,0.77-3.54,0.64-4.92-0.16l0,0L34.48,27.32L34.48,27.32z"/>
			</g>
			<g>
				<polygon class="st3" points="35.76,25.93 38.6,24.28 39.66,24.89 36.82,26.54 35.76,25.93 				"/>
			</g>
			<g>
				<polygon class="st3" points="39.66,23.66 40.93,22.92 41.99,23.54 40.72,24.28 39.66,23.66 				"/>
			</g>
			<g>
				<path class="st3" d="M36.4,26.17"/>
			</g>
			<g>
				<path class="st3" d="M36.97,29.62c0.65-0.08,1.2-0.24,1.41-0.31l0,0c0.07-0.02,0.09-0.03,0.09-0.03l0,0l0,0l0.81,0.73
					c-0.04,0.02-0.84,0.32-2,0.46l0,0L36.97,29.62L36.97,29.62z"/>
			</g>
			<g>
				<polygon class="st3" points="42.82,29.58 46.36,27.52 47.41,28.14 43.88,30.19 42.82,29.58 				"/>
			</g>
		</g>
	</g>
</g>
</svg>
