<?xml version="1.0" encoding="utf-8"?>
<!-- Generator: Adobe Illustrator 23.1.1, SVG Export Plug-In . SVG Version: 6.00 Build 0)  -->
<svg version="1.1" id="Ebene_1" xmlns="http://www.w3.org/2000/svg" xmlns:xlink="http://www.w3.org/1999/xlink" x="0px" y="0px"
	 viewBox="0 0 77 85" style="enable-background:new 0 0 77 85;" xml:space="preserve">
<style type="text/css">
	.st0{fill:url(#SVGID_1_);}
	.st1{fill:#003742;}
	.st2{fill:#00CAC6;}
	.st3{fill:#FFFFFF;}
</style>
<g>
	<g>
		
			<linearGradient id="SVGID_1_" gradientUnits="userSpaceOnUse" x1="-103.5259" y1="98.9198" x2="-68.7221" y2="30.22" gradientTransform="matrix(-1 0 0 1 -57.1768 0)">
			<stop  offset="0" style="stop-color:#003742"/>
			<stop  offset="1" style="stop-color:#00CAC6"/>
		</linearGradient>
		<polygon class="st0" points="7.59,25.5 36.8,42.36 36.8,76.98 7.59,60.12 		"/>
		<polygon class="st1" points="66,25.5 36.8,42.36 36.8,76.98 66,60.12 		"/>
		<g>
			<polygon class="st2" points="36.8,42.36 7.59,25.5 36.8,8.64 66,25.5 			"/>
		</g>
	</g>
	<g>
		<g>
			<g>
				<path class="st3" d="M24.57,23.3c1.46-0.21,2.83-0.65,3.96-1.31l0,0l2.9-1.69l1.06,0.62l-2.91,1.69
					c-1.32,0.77-2.94,1.29-4.65,1.54l0,0L24.57,23.3L24.57,23.3z"/>
			</g>
			<g>
				<path class="st3" d="M30.69,31.8c3.11,0.73,6.82,0.36,9.32-1.1l0,0l0,0l1.06,0.62c-2.95,1.71-7.29,2.14-10.94,1.29l0,0
					L30.69,31.8L30.69,31.8z"/>
			</g>
			<g>
				<path class="st3" d="M45.91,27.28c3.35-1.95,3.35-5.14,0.01-7.09l0,0c-3.36-1.95-8.84-1.95-12.2,0l0,0v0l-1.06-0.62
					c3.94-2.29,10.38-2.29,14.32,0l0,0c3.94,2.3,3.93,6.04-0.02,8.33l0,0L45.91,27.28L45.91,27.28z"/>
			</g>
			<g>
				<path class="st3" d="M32.3,28.11"/>
			</g>
			<g>
				<path class="st3" d="M37.61,29.37l6.06-3.52c0.92-0.53,1.43-1.21,1.53-1.91l0,0l0,0l1.49,0.08c-0.13,0.89-0.79,1.77-1.97,2.45
					l0,0l-6.06,3.52L37.61,29.37L37.61,29.37z"/>
			</g>
			<g>
				<path class="st3" d="M32.75,22.26l2.38-1.38c2.65-1.54,6.96-1.54,9.61,0l0,0c0.79,0.46,1.35,1.01,1.66,1.59l0,0l-1.43,0.27
					c-0.25-0.45-0.68-0.88-1.3-1.24l0,0c-2.07-1.2-5.43-1.2-7.49,0l0,0l-2.38,1.38L32.75,22.26L32.75,22.26z"/>
			</g>
			<g>
				<path class="st3" d="M36.36,27.51l5.01-2.91c0.32-0.19,0.48-0.45,0.44-0.75l0,0c-0.04-0.3-0.27-0.62-0.72-0.88l0,0
					c-0.45-0.26-1-0.4-1.51-0.42l0,0c-0.52-0.02-0.97,0.07-1.29,0.26l0,0l-3.43,1.99l-1.06-0.62l3.43-2
					c1.36-0.77,3.54-0.64,4.93,0.16l0,0c1.38,0.8,1.6,2.07,0.27,2.86l0,0l-5.01,2.91l0,0L36.36,27.51L36.36,27.51z"/>
			</g>
			<g>
				<polygon class="st3" points="37.71,29.31 43.77,25.79 44.83,26.41 38.77,29.93 37.71,29.31 				"/>
			</g>
			<g>
				<path class="st3" d="M29.17,29.93c-2.65-1.54-2.65-4.04-0.01-5.58l0,0l2.32-1.35l0,0l1.06,0.61l-2.32,1.35
					c-2.06,1.2-2.05,3.15,0,4.35l0,0c0.97,0.56,2.22,0.86,3.5,0.9l0,0l-0.06,0.87C32.03,31.03,30.42,30.65,29.17,29.93L29.17,29.93
					C29.17,29.93,29.17,29.93,29.17,29.93L29.17,29.93z"/>
			</g>
			<g>
				<path class="st3" d="M31.42,25.57l3.42-1.99l1.06,0.62l-3.42,1.99c-0.39,0.23-0.54,0.57-0.39,0.95l0,0l0,0l-1.46,0.2
					C30.38,26.72,30.61,26.04,31.42,25.57L31.42,25.57z"/>
			</g>
			<g>
				<path class="st3" d="M32.75,27.82c0.45,0.26,1,0.4,1.51,0.42l0,0c0.52,0.02,0.97-0.07,1.29-0.26l0,0l5.63-3.27l1.06,0.62
					l-5.63,3.27c-1.36,0.77-3.54,0.64-4.92-0.16l0,0L32.75,27.82L32.75,27.82z"/>
			</g>
			<g>
				<polygon class="st3" points="34.04,26.43 36.88,24.78 37.94,25.39 35.1,27.05 34.04,26.43 				"/>
			</g>
			<g>
				<polygon class="st3" points="37.94,24.16 39.21,23.43 40.27,24.04 39,24.78 37.94,24.16 				"/>
			</g>
			<g>
				<path class="st3" d="M34.68,26.67"/>
			</g>
			<g>
				<path class="st3" d="M35.25,30.12c0.65-0.08,1.2-0.24,1.41-0.31l0,0c0.07-0.02,0.09-0.03,0.09-0.03l0,0l0,0l0.81,0.73
					c-0.04,0.02-0.84,0.32-2,0.46l0,0L35.25,30.12L35.25,30.12z"/>
			</g>
			<g>
				<polygon class="st3" points="41.1,30.08 44.64,28.03 45.69,28.64 42.16,30.69 41.1,30.08 				"/>
			</g>
		</g>
	</g>
</g>
<path class="st3" d="M59.26,52.75V42.9l-1.04,0.61v9.85L59.26,52.75z M55.62,45.01l-1.04,0.61v11.81l-2.6,1.51V47.12l-1.04,0.6
	v11.81l-2.6,1.51V49.24l-1.04,0.61v11.81l-2.6,1.51V51.35l-1.05,0.61v11.81l-2.3,1.34v1.23L61.57,54.6v-1.23l-5.95,3.45V45.01z
	 M62.28,39.41l-10.81,1.31l-10.82,11.3l2.76-1.61L62.28,39.41z M51.47,42.04l5.29-0.64l-10.59,6.17L51.47,42.04z"/>
</svg>
