<?xml version="1.0" encoding="utf-8"?>
<!-- Generator: Adobe Illustrator 23.1.1, SVG Export Plug-In . SVG Version: 6.00 Build 0)  -->
<svg version="1.1" id="Ebene_1" xmlns="http://www.w3.org/2000/svg" xmlns:xlink="http://www.w3.org/1999/xlink" x="0px" y="0px"
	 viewBox="0 0 77 85" style="enable-background:new 0 0 77 85;" xml:space="preserve">
<style type="text/css">
	.st0{fill:url(#SVGID_1_);}
	.st1{fill:#003742;}
	.st2{fill:#00CAC6;}
	.st3{fill:#FFFFFF;}
</style>
<g>
	<g>
		
			<linearGradient id="SVGID_1_" gradientUnits="userSpaceOnUse" x1="-105.5259" y1="97.9198" x2="-70.7221" y2="29.22" gradientTransform="matrix(-1 0 0 1 -57.1768 0)">
			<stop  offset="0" style="stop-color:#003742"/>
			<stop  offset="1" style="stop-color:#00CAC6"/>
		</linearGradient>
		<polygon class="st0" points="9.59,24.5 38.8,41.36 38.8,75.98 9.59,59.12 		"/>
		<polygon class="st1" points="68,24.5 38.8,41.36 38.8,75.98 68,59.12 		"/>
		<g>
			<polygon class="st2" points="38.8,41.36 9.59,24.5 38.8,7.64 68,24.5 			"/>
		</g>
	</g>
	<g>
		<g>
			<g>
				<path class="st3" d="M26.57,22.3c1.46-0.21,2.83-0.65,3.96-1.31l0,0l2.9-1.69l1.06,0.62l-2.91,1.69
					c-1.32,0.77-2.94,1.29-4.65,1.54l0,0L26.57,22.3L26.57,22.3z"/>
			</g>
			<g>
				<path class="st3" d="M32.69,30.8c3.11,0.73,6.82,0.36,9.32-1.1l0,0l0,0l1.06,0.62c-2.95,1.71-7.29,2.14-10.94,1.29l0,0
					L32.69,30.8L32.69,30.8z"/>
			</g>
			<g>
				<path class="st3" d="M47.91,26.28c3.35-1.95,3.35-5.14,0.01-7.09l0,0c-3.36-1.95-8.84-1.95-12.2,0l0,0v0l-1.06-0.62
					c3.94-2.29,10.38-2.29,14.32,0l0,0c3.94,2.3,3.93,6.04-0.02,8.33l0,0L47.91,26.28L47.91,26.28z"/>
			</g>
			<g>
				<path class="st3" d="M34.3,27.11"/>
			</g>
			<g>
				<path class="st3" d="M39.61,28.37l6.06-3.52c0.92-0.53,1.43-1.21,1.53-1.91l0,0l0,0l1.49,0.08c-0.13,0.89-0.79,1.77-1.97,2.45
					l0,0l-6.06,3.52L39.61,28.37L39.61,28.37z"/>
			</g>
			<g>
				<path class="st3" d="M34.75,21.26l2.38-1.38c2.65-1.54,6.96-1.54,9.61,0l0,0c0.79,0.46,1.35,1.01,1.66,1.59l0,0l-1.43,0.27
					c-0.25-0.45-0.68-0.88-1.3-1.24l0,0c-2.07-1.2-5.43-1.2-7.49,0l0,0l-2.38,1.38L34.75,21.26L34.75,21.26z"/>
			</g>
			<g>
				<path class="st3" d="M38.36,26.51l5.01-2.91c0.32-0.19,0.48-0.45,0.44-0.75l0,0c-0.04-0.3-0.27-0.62-0.72-0.88l0,0
					c-0.45-0.26-1-0.4-1.51-0.42l0,0c-0.52-0.02-0.97,0.07-1.29,0.26l0,0l-3.43,1.99l-1.06-0.62l3.43-2
					c1.36-0.77,3.54-0.64,4.93,0.16l0,0c1.38,0.8,1.6,2.07,0.27,2.86l0,0l-5.01,2.91l0,0L38.36,26.51L38.36,26.51z"/>
			</g>
			<g>
				<polygon class="st3" points="39.71,28.31 45.77,24.79 46.83,25.41 40.77,28.93 39.71,28.31 				"/>
			</g>
			<g>
				<path class="st3" d="M31.17,28.93c-2.65-1.54-2.65-4.04-0.01-5.58l0,0l2.32-1.35l0,0l1.06,0.61l-2.32,1.35
					c-2.06,1.2-2.05,3.15,0,4.35l0,0c0.97,0.56,2.22,0.86,3.5,0.9l0,0l-0.06,0.87C34.03,30.03,32.42,29.65,31.17,28.93L31.17,28.93
					C31.17,28.93,31.17,28.93,31.17,28.93L31.17,28.93z"/>
			</g>
			<g>
				<path class="st3" d="M33.42,24.57l3.42-1.99l1.06,0.62l-3.42,1.99c-0.39,0.23-0.54,0.57-0.39,0.95l0,0l0,0l-1.46,0.2
					C32.38,25.72,32.61,25.04,33.42,24.57L33.42,24.57z"/>
			</g>
			<g>
				<path class="st3" d="M34.75,26.82c0.45,0.26,1,0.4,1.51,0.42l0,0c0.52,0.02,0.97-0.07,1.29-0.26l0,0l5.63-3.27l1.06,0.62
					l-5.63,3.27c-1.36,0.77-3.54,0.64-4.92-0.16l0,0L34.75,26.82L34.75,26.82z"/>
			</g>
			<g>
				<polygon class="st3" points="36.04,25.43 38.88,23.78 39.94,24.39 37.1,26.05 36.04,25.43 				"/>
			</g>
			<g>
				<polygon class="st3" points="39.94,23.16 41.21,22.43 42.27,23.04 41,23.78 39.94,23.16 				"/>
			</g>
			<g>
				<path class="st3" d="M36.68,25.67"/>
			</g>
			<g>
				<path class="st3" d="M37.25,29.12c0.65-0.08,1.2-0.24,1.41-0.31l0,0c0.07-0.02,0.09-0.03,0.09-0.03l0,0l0,0l0.81,0.73
					c-0.04,0.02-0.84,0.32-2,0.46l0,0L37.25,29.12L37.25,29.12z"/>
			</g>
			<g>
				<polygon class="st3" points="43.1,29.08 46.64,27.03 47.69,27.64 44.16,29.69 43.1,29.08 				"/>
			</g>
		</g>
	</g>
</g>
<g>
	<polygon class="st3" points="49.76,60.07 49.76,61.27 58.13,56.33 58.13,55.14 	"/>
	<polygon class="st3" points="48.6,64.4 59.29,58.1 59.29,56.9 48.6,63.21 	"/>
	<path class="st3" d="M59.21,37.45l-0.94,0.55v1.03l-0.97,0.57v1.05l-5.34,3.15l-0.15-0.21c-0.33-0.44-0.87-0.46-1.42-0.14
		c-0.32,0.19-0.64,0.49-0.92,0.9c-0.5,0.7-0.77,1.55-0.76,2.25c0,0.4,0.09,0.76,0.27,1.01l2.59,3.49c0,0.01,0,0.02,0,0.02v5.43
		l-0.92,0.54v1.19l6.6-3.89v-1.19l-0.92,0.54v-5.43c0-1.61-1.01-2.33-2.26-1.68l-1.49-2.01l4.72-2.78v1.74l0.97-0.57v1.61l0.94-0.55
		v-1.61l1.02-0.6v-0.64v-3.34l-1.02,0.6V37.45z M54.09,48.87c0.08,0.11,0.12,0.27,0.12,0.45c0,0.31-0.12,0.69-0.33,1
		c-0.13,0.18-0.27,0.31-0.41,0.4c-0.25,0.15-0.49,0.13-0.63-0.06l-3.08-4.15c-0.08-0.11-0.12-0.27-0.12-0.45
		c0-0.32,0.12-0.69,0.34-1c0.13-0.19,0.27-0.32,0.41-0.4c0.25-0.14,0.49-0.14,0.63,0.06L54.09,48.87z M55.39,54.31l-2.88,1.7v-3.94
		c0.29,0.09,0.62,0.04,0.97-0.17c0,0,0.01,0,0.01-0.01c0.31-0.19,0.63-0.49,0.92-0.89l0-0.01c0.49-0.7,0.76-1.54,0.76-2.24
		c0-0.37-0.08-0.69-0.24-0.94c0.28,0.17,0.47,0.53,0.47,1.05V54.31z M59.22,41.18l-0.91,0.54V40.3l0.91-0.54V41.18z"/>
</g>
</svg>
