<?xml version="1.0" encoding="utf-8"?>
<!-- Generator: Adobe Illustrator 23.1.1, SVG Export Plug-In . SVG Version: 6.00 Build 0)  -->
<svg version="1.1" id="Ebene_1" xmlns="http://www.w3.org/2000/svg" xmlns:xlink="http://www.w3.org/1999/xlink" x="0px" y="0px"
	 viewBox="0 0 148 158" style="enable-background:new 0 0 148 158;" xml:space="preserve">
<style type="text/css">
	.st0{fill:url(#SVGID_1_);}
	.st1{fill:#003742;}
	.st2{fill:#00CAC6;}
	.st3{fill:url(#SVGID_2_);}
	.st4{fill:#FFFFFF;}
	.st5{fill:none;stroke:#E31193;stroke-width:2;stroke-dasharray:5.03,3.018;}
	.st6{fill:url(#SVGID_3_);}
	.st7{fill:url(#SVGID_4_);}
</style>
<g>
	<g>
		
			<linearGradient id="SVGID_1_" gradientUnits="userSpaceOnUse" x1="-111.8197" y1="171.8485" x2="-77.0165" y2="103.1498" gradientTransform="matrix(-1 0 0 1 -57.1768 0)">
			<stop  offset="0" style="stop-color:#003742"/>
			<stop  offset="1" style="stop-color:#00CAC6"/>
		</linearGradient>
		<polygon class="st0" points="15.89,98.43 45.09,115.29 45.09,149.91 15.89,133.05 		"/>
		<polygon class="st1" points="74.3,98.43 45.09,115.29 45.09,149.91 74.3,133.05 		"/>
		<g>
			<polygon class="st2" points="45.09,115.29 15.89,98.43 45.09,81.57 74.3,98.43 			"/>
		</g>
	</g>
	<g>
		
			<linearGradient id="SVGID_2_" gradientUnits="userSpaceOnUse" x1="-170.2298" y1="171.8493" x2="-135.426" y2="103.1495" gradientTransform="matrix(-1 0 0 1 -57.1768 0)">
			<stop  offset="0" style="stop-color:#003742"/>
			<stop  offset="1" style="stop-color:#00CAC6"/>
		</linearGradient>
		<polygon class="st3" points="74.3,98.43 103.5,115.29 103.5,149.91 74.3,133.05 		"/>
		<polygon class="st1" points="132.7,98.43 103.5,115.29 103.5,149.91 132.7,133.05 		"/>
		<g>
			<polygon class="st2" points="103.5,115.29 74.3,98.43 103.5,81.57 132.7,98.43 			"/>
		</g>
	</g>
	<g>
		<g>
			<g>
				<path class="st4" d="M33.04,96.23c1.46-0.21,2.83-0.65,3.96-1.31l0,0l2.9-1.69l1.06,0.62l-2.91,1.69
					c-1.33,0.77-2.94,1.29-4.65,1.54l0,0L33.04,96.23L33.04,96.23z"/>
			</g>
			<g>
				<path class="st4" d="M39.16,104.73c3.11,0.73,6.82,0.36,9.32-1.1l0,0l0,0l1.06,0.61c-2.95,1.71-7.29,2.14-10.94,1.29l0,0
					L39.16,104.73L39.16,104.73z"/>
			</g>
			<g>
				<path class="st4" d="M54.38,100.21c3.35-1.95,3.36-5.14,0.01-7.09l0,0c-3.36-1.95-8.84-1.95-12.2,0l0,0v0l-1.06-0.62
					c3.94-2.29,10.38-2.29,14.32,0l0,0c3.94,2.29,3.93,6.04-0.02,8.33l0,0L54.38,100.21L54.38,100.21z"/>
			</g>
			<g>
				<path class="st4" d="M40.77,101.04"/>
			</g>
			<g>
				<path class="st4" d="M46.08,102.3l6.06-3.52c0.92-0.53,1.43-1.21,1.53-1.91l0,0h0l1.49,0.07c-0.13,0.9-0.79,1.77-1.97,2.45l0,0
					l-6.06,3.52L46.08,102.3L46.08,102.3z"/>
			</g>
			<g>
				<path class="st4" d="M41.22,95.19l2.38-1.39c2.65-1.54,6.96-1.54,9.61,0l0,0c0.79,0.46,1.34,1.01,1.66,1.59l0,0l-1.43,0.27
					c-0.25-0.45-0.68-0.88-1.3-1.24l0,0c-2.07-1.2-5.43-1.2-7.49,0l0,0l-2.38,1.38L41.22,95.19L41.22,95.19z"/>
			</g>
			<g>
				<path class="st4" d="M44.83,100.44l5.01-2.91c0.33-0.19,0.48-0.45,0.44-0.75l0,0c-0.03-0.3-0.27-0.62-0.72-0.88l0,0
					c-0.45-0.26-1-0.4-1.51-0.42l0,0c-0.52-0.02-0.97,0.07-1.29,0.26l0,0l-3.43,2l-1.06-0.62l3.43-1.99
					c1.36-0.77,3.54-0.64,4.93,0.16l0,0c1.38,0.8,1.6,2.07,0.27,2.86l0,0l-5.01,2.91h0L44.83,100.44L44.83,100.44z"/>
			</g>
			<g>
				<polygon class="st4" points="46.18,102.24 52.24,98.72 53.31,99.34 47.24,102.86 46.18,102.24 				"/>
			</g>
			<g>
				<path class="st4" d="M37.64,102.86c-2.65-1.54-2.65-4.04-0.01-5.58l0,0l2.32-1.35v0l1.06,0.61l-2.32,1.35
					c-2.06,1.2-2.05,3.15,0,4.35l0,0c0.97,0.56,2.22,0.86,3.5,0.9l0,0l-0.06,0.87C40.51,103.96,38.89,103.58,37.64,102.86
					L37.64,102.86C37.65,102.86,37.64,102.86,37.64,102.86L37.64,102.86z"/>
			</g>
			<g>
				<path class="st4" d="M39.89,98.5l3.43-1.99l1.06,0.62l-3.43,1.99c-0.39,0.23-0.54,0.57-0.39,0.95l0,0l0,0l-1.46,0.2
					C38.85,99.65,39.08,98.97,39.89,98.5L39.89,98.5z"/>
			</g>
			<g>
				<path class="st4" d="M41.22,100.75c0.45,0.26,1,0.4,1.51,0.42l0,0c0.52,0.02,0.97-0.07,1.29-0.26l0,0l5.63-3.27l1.06,0.61
					l-5.63,3.27c-1.36,0.77-3.54,0.64-4.92-0.16l0,0L41.22,100.75L41.22,100.75z"/>
			</g>
			<g>
				<polygon class="st4" points="42.51,99.36 45.35,97.71 46.41,98.32 43.57,99.97 42.51,99.36 				"/>
			</g>
			<g>
				<polygon class="st4" points="46.41,97.09 47.68,96.36 48.73,96.97 47.47,97.71 46.41,97.09 				"/>
			</g>
			<g>
				<path class="st4" d="M43.15,99.6"/>
			</g>
			<g>
				<path class="st4" d="M43.72,103.05c0.65-0.08,1.2-0.24,1.41-0.31l0,0c0.07-0.02,0.09-0.03,0.09-0.03l0,0l0,0l0.81,0.73
					c-0.05,0.02-0.84,0.32-2,0.46l0,0L43.72,103.05L43.72,103.05z"/>
			</g>
			<g>
				<polygon class="st4" points="49.57,103.01 53.11,100.96 54.17,101.57 50.63,103.62 49.57,103.01 				"/>
			</g>
		</g>
	</g>
	<g>
		<g>
			<g>
				<path class="st4" d="M91.27,96.23c1.46-0.21,2.83-0.65,3.96-1.31l0,0l2.9-1.69l1.06,0.62l-2.91,1.69
					c-1.32,0.77-2.94,1.29-4.65,1.54l0,0L91.27,96.23L91.27,96.23z"/>
			</g>
			<g>
				<path class="st4" d="M97.39,104.73c3.11,0.73,6.82,0.36,9.32-1.1l0,0l0,0l1.06,0.62c-2.95,1.71-7.29,2.14-10.94,1.29l0,0
					L97.39,104.73L97.39,104.73z"/>
			</g>
			<g>
				<path class="st4" d="M112.62,100.21c3.35-1.95,3.35-5.14,0.01-7.09l0,0c-3.36-1.95-8.84-1.95-12.2,0l0,0v0l-1.06-0.62
					c3.94-2.29,10.38-2.29,14.32,0l0,0c3.94,2.3,3.93,6.04-0.02,8.33l0,0L112.62,100.21L112.62,100.21z"/>
			</g>
			<g>
				<path class="st4" d="M99,101.04"/>
			</g>
			<g>
				<path class="st4" d="M104.32,102.3l6.06-3.52c0.92-0.53,1.43-1.21,1.53-1.91l0,0l0,0l1.49,0.08c-0.13,0.89-0.79,1.77-1.97,2.45
					l0,0l-6.06,3.52L104.32,102.3L104.32,102.3z"/>
			</g>
			<g>
				<path class="st4" d="M99.45,95.19l2.38-1.38c2.65-1.54,6.96-1.54,9.61,0l0,0c0.79,0.46,1.35,1.01,1.66,1.59l0,0l-1.43,0.27
					c-0.25-0.45-0.68-0.88-1.3-1.24l0,0c-2.07-1.2-5.43-1.2-7.49,0l0,0l-2.38,1.38L99.45,95.19L99.45,95.19z"/>
			</g>
			<g>
				<path class="st4" d="M103.07,100.44l5.01-2.91c0.32-0.19,0.48-0.45,0.44-0.75l0,0c-0.04-0.3-0.27-0.62-0.72-0.88l0,0
					c-0.45-0.26-1-0.4-1.51-0.42l0,0c-0.52-0.02-0.97,0.07-1.29,0.26l0,0l-3.43,1.99l-1.06-0.62l3.43-2
					c1.36-0.77,3.54-0.64,4.93,0.16l0,0c1.38,0.8,1.6,2.07,0.27,2.86l0,0l-5.01,2.91l0,0L103.07,100.44L103.07,100.44z"/>
			</g>
			<g>
				<polygon class="st4" points="104.42,102.24 110.48,98.72 111.54,99.34 105.48,102.86 104.42,102.24 				"/>
			</g>
			<g>
				<path class="st4" d="M95.88,102.86c-2.65-1.54-2.65-4.04-0.01-5.58l0,0l2.32-1.35l0,0l1.06,0.61l-2.32,1.35
					c-2.06,1.2-2.05,3.15,0,4.35l0,0c0.97,0.56,2.22,0.86,3.5,0.9l0,0l-0.06,0.87C98.74,103.96,97.12,103.58,95.88,102.86
					L95.88,102.86C95.88,102.86,95.88,102.86,95.88,102.86L95.88,102.86z"/>
			</g>
			<g>
				<path class="st4" d="M98.12,98.5l3.42-1.99l1.06,0.62l-3.42,1.99c-0.39,0.23-0.54,0.57-0.39,0.95l0,0l0,0l-1.46,0.2
					C97.08,99.65,97.31,98.97,98.12,98.5L98.12,98.5z"/>
			</g>
			<g>
				<path class="st4" d="M99.46,100.75c0.45,0.26,1,0.4,1.51,0.42l0,0c0.52,0.02,0.97-0.07,1.29-0.26l0,0l5.63-3.27l1.06,0.62
					l-5.63,3.27c-1.36,0.77-3.54,0.64-4.92-0.16l0,0L99.46,100.75L99.46,100.75z"/>
			</g>
			<g>
				<polygon class="st4" points="100.74,99.36 103.58,97.71 104.64,98.32 101.8,99.97 100.74,99.36 				"/>
			</g>
			<g>
				<polygon class="st4" points="104.64,97.09 105.91,96.35 106.97,96.97 105.7,97.71 104.64,97.09 				"/>
			</g>
			<g>
				<path class="st4" d="M101.39,99.6"/>
			</g>
			<g>
				<path class="st4" d="M101.95,103.05c0.65-0.08,1.2-0.24,1.41-0.31l0,0c0.07-0.02,0.09-0.03,0.09-0.03l0,0l0,0l0.81,0.73
					c-0.04,0.02-0.84,0.32-2,0.46l0,0L101.95,103.05L101.95,103.05z"/>
			</g>
			<g>
				<polygon class="st4" points="107.81,103.01 111.34,100.96 112.4,101.57 108.87,103.62 107.81,103.01 				"/>
			</g>
		</g>
	</g>
</g>
<polyline class="st5" points="45.09,98.33 45.09,36.94 103.17,36.94 103.17,98.33 "/>
<g>
	<g>
		<g>
			<linearGradient id="SVGID_3_" gradientUnits="userSpaceOnUse" x1="56.2255" y1="7.4575" x2="97.1802" y2="78.2099">
				<stop  offset="3.034320e-03" style="stop-color:#E41194"/>
				<stop  offset="0.4592" style="stop-color:#FFFFFF"/>
				<stop  offset="1" style="stop-color:#E41194"/>
			</linearGradient>
			<path class="st6" d="M91.91,24.91L60.76,6.92C59.3,6.08,57.97,6,57.01,6.56v0l-3.73,2.15l2.17,0.88
				c-0.01,0.13-0.01,0.27-0.01,0.4v40.3c0,3.37,2.39,7.52,5.32,9.2l29.12,16.81L91.94,80l3.69-2.13c0.98-0.55,1.6-1.74,1.6-3.45
				v-40.3C97.23,30.74,94.84,26.59,91.91,24.91z"/>
			<g>
				<linearGradient id="SVGID_4_" gradientUnits="userSpaceOnUse" x1="86.2682" y1="125.3036" x2="72.3998" y2="43.0192">
					<stop  offset="0" style="stop-color:#FFFFFF"/>
					<stop  offset="1" style="stop-color:#E41194"/>
				</linearGradient>
				<path class="st7" d="M51.73,12.13c0-3.38,2.4-4.76,5.32-3.07L88.2,27.05c2.93,1.69,5.32,5.83,5.32,9.21v40.3
					c0,3.38-2.39,4.76-5.32,3.07L57.05,61.64c-2.92-1.69-5.32-5.83-5.32-9.21V12.13z"/>
			</g>
		</g>
	</g>
	<path class="st4" d="M85,44.95l-2.79-1.24c-0.14-0.44-0.33-1.21-0.42-2.31c-0.03-0.36-0.04-0.67-0.04-0.95
		c0-0.62,0.06-1.05,0.11-1.32l3.89,1.76l-0.69-1.65c-0.91-1.85-2.25-3.45-3.72-4.3c-0.17-0.1-0.34-0.19-0.52-0.26
		c-2.52-1.12-4.39,0.47-4.39,3.6c0,0.21,0.01,0.44,0.03,0.67c0.03,0.4,0.09,0.8,0.17,1.2l-3.53,2.4l-2.02-3.7l-3.14,2.14l2.01,3.7
		l-4.59,3.13c-0.58-0.24-1.14-0.25-1.59,0.06c-0.53,0.36-0.8,1.09-0.8,1.96c0,0.87,0.27,1.91,0.8,2.89
		c0.53,0.97,1.23,1.71,1.92,2.11l0.01,0c0.69,0.4,1.39,0.47,1.92,0.11c0.44-0.3,0.69-0.84,0.76-1.5l4.62-3.14l7.47,13.71l3.14-2.14
		l-7.47-13.71l3.41-2.32c0.55,0.59,1.15,1.08,1.76,1.43c0.17,0.1,0.35,0.19,0.52,0.26c1.67,0.74,3.05,0.29,3.79-1l0.5-1.05L85,44.95
		z M69.82,42.07l1.27-0.87l1.09,1.99l-1.27,0.87L69.82,42.07z M81.76,60.8l-1.27,0.87l-6.53-12l1.27-0.87L81.76,60.8z M81.71,45.82
		c-0.13-0.06-0.25-0.12-0.38-0.19c-0.57-0.33-1.12-0.82-1.61-1.42l-0.43-0.52l-12.17,8.29l-0.01,0.32c-0.02,0.43-0.14,0.77-0.4,0.94
		c-0.28,0.19-0.63,0.15-0.99-0.06c-0.36-0.21-0.72-0.58-0.99-1.09c-0.28-0.51-0.41-1.03-0.41-1.49c0-0.45,0.14-0.82,0.41-1.01
		c0.27-0.18,0.61-0.15,0.96,0.04l0.26,0.15l12.22-8.32l-0.16-0.6c-0.12-0.45-0.2-0.89-0.24-1.33c-0.01-0.17-0.02-0.33-0.02-0.49
		c0-2.27,1.37-3.44,3.21-2.62c0.13,0.06,0.25,0.12,0.38,0.19c0.54,0.31,1.05,0.76,1.51,1.3l-1.94-0.87l-0.16,0.34
		c-0.04,0.07-0.33,0.76-0.33,2.31c0,0.33,0.01,0.71,0.05,1.12c0.19,2.34,0.81,3.68,0.89,3.84l0.22,0.45l1.91,0.85
		C83,46.15,82.39,46.12,81.71,45.82z M64.06,31.08l4.1,7.53l0.93-0.63l-4.1-7.54l0.78-0.54l-3.71-5.06l-1.1,0.76l2.38,5.97
		L64.06,31.08z"/>
</g>
<g>
	<path class="st4" d="M22.74,125.29l6.96,4.31c1.12,0.69,2.04,0.13,2.04-1.25c0-0.68-0.23-1.44-0.59-2.12l3.96-2.42l2.75,5.08
		l0.55-0.33l0.54,1l0.57-0.35l0.19,1.56l-2.69,0.54c-0.39-0.61-0.68-1.12-0.68-1.12l-0.58,0.4c0.04,0.04,1.39,2.55,2.62,3.56
		c0.16,0.13,0.32,0.24,0.48,0.34c1.19,0.73,1.92,0.44,1.96,0.42l0.19-0.08l-0.74-6.09l0.05-0.03l-5.2-9.6l-0.3,0.18l-1.6,0.98l0,0
		l-2.32,1.42l-1.32-3.94l-3.99-2.47v2.26l-4.5-2.78v3.93l4.5,2.78v0.54l-2.84-1.75c-1.12-0.69-2.04-0.14-2.04,1.25
		C20.7,122.91,21.61,124.6,22.74,125.29z M40.13,131.33L40.13,131.33L40.13,131.33z M39.91,133.82c-0.25-0.01-0.61-0.09-1.05-0.37
		c-0.11-0.07-0.24-0.16-0.37-0.26c-0.18-0.14-0.43-0.43-0.7-0.77l2.07-0.42l0.22,1.81C40.03,133.83,39.97,133.83,39.91,133.82z
		 M22.74,121.33l6.96,4.31c0.65,0.4,1.19,1.39,1.19,2.19c0,0.8-0.54,1.13-1.19,0.73l-6.96-4.3c-0.65-0.4-1.19-1.39-1.19-2.19
		C21.55,121.25,22.09,120.93,22.74,121.33z M21.93,116.36l3.65,2.26v1.83l-3.65-2.26V116.36z M29.05,118.51l1.1,3.29v2.86l-3.73-2.3
		v-5.48L29.05,118.51z M34.52,122.7l-3.51,2.14v-1.71l2.81-1.72L34.52,122.7z M38.41,128.42l-4-7.38l0.7-0.42l3.99,7.37
		L38.41,128.42z"/>
	<polygon class="st4" points="29.71,127.19 29.71,126.66 22.63,122.28 22.63,123.33 29.71,127.71 	"/>
</g>
<g>
	<polygon class="st4" points="114.76,133.07 114.76,134.27 123.13,129.33 123.13,128.14 	"/>
	<polygon class="st4" points="113.6,137.4 124.29,131.1 124.29,129.9 113.6,136.21 	"/>
	<path class="st4" d="M124.21,110.45l-0.94,0.55v1.03l-0.97,0.57v1.05l-5.34,3.15l-0.15-0.21c-0.33-0.44-0.87-0.46-1.42-0.14
		c-0.32,0.19-0.64,0.49-0.92,0.9c-0.5,0.7-0.77,1.55-0.76,2.25c0,0.4,0.09,0.76,0.27,1.01l2.59,3.49c0,0.01,0,0.02,0,0.02v5.43
		l-0.92,0.54v1.19l6.6-3.89v-1.19l-0.92,0.54v-5.43c0-1.61-1.01-2.33-2.26-1.68l-1.49-2.01l4.72-2.78v1.74l0.97-0.57v1.61l0.94-0.55
		v-1.61l1.02-0.6v-0.64v-3.34l-1.02,0.6V110.45z M119.09,121.87c0.08,0.11,0.12,0.27,0.12,0.45c0,0.31-0.12,0.69-0.33,1
		c-0.13,0.18-0.27,0.31-0.41,0.4c-0.25,0.15-0.49,0.13-0.63-0.06l-3.08-4.15c-0.08-0.11-0.12-0.27-0.12-0.45
		c0-0.32,0.12-0.69,0.34-1c0.13-0.19,0.27-0.32,0.41-0.4c0.25-0.14,0.49-0.14,0.63,0.06L119.09,121.87z M120.39,127.31l-2.88,1.7
		v-3.94c0.29,0.09,0.62,0.04,0.97-0.17c0,0,0.01,0,0.01-0.01c0.31-0.19,0.63-0.49,0.92-0.89l0-0.01c0.49-0.7,0.76-1.54,0.76-2.24
		c0-0.37-0.08-0.69-0.24-0.94c0.28,0.17,0.47,0.53,0.47,1.05V127.31z M124.22,114.18l-0.91,0.54v-1.42l0.91-0.54V114.18z"/>
</g>
</svg>
